<svg xmlns="http://www.w3.org/2000/svg" viewBox="0 0 512 512">
  <rect width="512" height="512" fill="#728559" rx="80"/>
  <path fill="#ffffff" d="M384 128c0 17.7-14.3 32-32 32s-32-14.3-32-32s14.3-32 32-32s32 14.3 32 32zm-192 64c0-35.3 28.7-64 64-64h64c35.3 0 64 28.7 64 64v64c0 35.3-28.7 64-64 64H256c-35.3 0-64-28.7-64-64V192zM96 288c0-17.7 14.3-32 32-32h32c17.7 0 32 14.3 32 32v64c0 17.7-14.3 32-32 32H128c-17.7 0-32-14.3-32-32V288zm144-16c0-17.7 14.3-32 32-32h32c17.7 0 32 14.3 32 32v48c0 17.7-14.3 32-32 32H272c-17.7 0-32-14.3-32-32V272zm128 48c0 17.7-14.3 32-32 32s-32-14.3-32-32s14.3-32 32-32s32 14.3 32 32z"/>
</svg>
